<svg xmlns="http://www.w3.org/2000/svg" viewBox="0 0 400 500" fill="none">
  <defs>
    <linearGradient id="g" x1="0" y1="0" x2="1" y2="1">
      <stop offset="0%" stop-color="#CCFF33" stop-opacity="0.25"/>
      <stop offset="100%" stop-color="#57D9FF" stop-opacity="0.15"/>
    </linearGradient>
  </defs>
  <rect width="400" height="500" fill="url(#g)"/>
  <g transform="translate(200,180)" fill="#F2F4F7" opacity="0.9">
    <ellipse cx="0" cy="-120" rx="55" ry="65"/>
    <path d="M-70,-60 C-90,20 -80,100 -60,160 L-45,380 L-15,380 L-25,200 L0,190 L25,200 L15,380 L45,380 L60,160 C80,100 90,20 70,-60 Z"/>
    <rect x="-85" y="-55" width="40" height="90" rx="18" transform="rotate(-15 -65 -10)"/>
    <rect x="45" y="-55" width="40" height="90" rx="18" transform="rotate(15 65 -10)"/>
    <ellipse cx="-30" cy="130" rx="22" ry="80" transform="rotate(-20 -30 130)"/>
    <ellipse cx="30" cy="130" rx="22" ry="80" transform="rotate(20 30 130)"/>
    <rect x="-18" y="200" width="36" height="180" rx="14"/>
    <ellipse cx="0" cy="400" rx="50" ry="20"/>
  </g>
  <text x="200" y="460" text-anchor="middle" font-family="Archivo, sans-serif" font-weight="800" font-size="14" fill="#9AA3B2" letter-spacing="0.15em">PLAYER SILHOUETTE</text>
</svg>